<svg width="128" height="72" xmlns="http://www.w3.org/2000/svg" xmlns:xlink="http://www.w3.org/1999/xlink"><defs><linearGradient x1="49.078%" y1="100%" x2="0%" y2="7.585%" id="b"><stop stop-color="#006DCC" offset="0%"/><stop stop-color="#338BF8" offset="39.97%"/><stop stop-color="#23FAD2" offset="100%"/></linearGradient><circle id="a" cx="36" cy="36" r="36"/><linearGradient x1="-46.73%" y1="64.95%" x2="32.222%" y2="64.95%" id="f"><stop stop-color="#EEE" offset="0%"/><stop stop-color="#C7E5FF" stop-opacity="0" offset="100%"/></linearGradient><circle id="e" cx="72" cy="25" r="32"/><filter x="-31.2%" y="-25%" width="162.5%" height="162.5%" filterUnits="objectBoundingBox" id="d"><feOffset dy="4" in="SourceAlpha" result="shadowOffsetOuter1"/><feGaussianBlur stdDeviation="6" in="shadowOffsetOuter1" result="shadowBlurOuter1"/><feColorMatrix values="0 0 0 0 0.207843137 0 0 0 0 0.145098039 0 0 0 0 0.82745098 0 0 0 0.16 0" in="shadowBlurOuter1"/></filter><linearGradient x1="50%" y1="0%" x2="50%" y2="100%" id="g"><stop stop-color="#EEE" offset="0%"/><stop stop-color="#C7E5FF" offset="100%"/></linearGradient><path d="M25.406 32.584C20.458 19.694 27.128 5.144 40.305.086l5.376 14.004c2.376 6.19 2.14 13.091-.653 19.186-2.794 6.094-7.919 10.883-14.246 13.311C20.24 50.634 8.486 45.555 4.528 35.242L.944 25.907c10.541-4.047 22.295 1.033 26.254 11.345l-1.792-4.668z" id="i"/><filter x="-43.1%" y="-33.4%" width="186.3%" height="183.5%" filterUnits="objectBoundingBox" id="h"><feOffset dy="4" in="SourceAlpha" result="shadowOffsetOuter1"/><feGaussianBlur stdDeviation="6" in="shadowOffsetOuter1" result="shadowBlurOuter1"/><feColorMatrix values="0 0 0 0 0.207843137 0 0 0 0 0.145098039 0 0 0 0 0.82745098 0 0 0 0.16 0" in="shadowBlurOuter1"/></filter></defs><g fill="none" fill-rule="evenodd"><g transform="translate(28)"><mask id="c" fill="#fff"><use xlink:href="#a"/></mask><use fill="url(#b)" xlink:href="#a"/><g mask="url(#c)"><use fill="#000" filter="url(#d)" xlink:href="#e"/><use fill="url(#f)" xlink:href="#e"/></g></g><g transform="translate(16)"><rect fill="url(#g)" opacity=".48" x="41" y="48" width="12" height="12" rx="1"/><use fill="#000" filter="url(#h)" xlink:href="#i"/><use fill="url(#g)" xlink:href="#i"/></g></g></svg>