<svg width="128" height="72" xmlns="http://www.w3.org/2000/svg" xmlns:xlink="http://www.w3.org/1999/xlink"><defs><linearGradient x1="49.078%" y1="100%" x2="0%" y2="7.585%" id="b"><stop stop-color="#006DCC" offset="0%"/><stop stop-color="#338BF8" offset="39.97%"/><stop stop-color="#23FAD2" offset="100%"/></linearGradient><circle id="a" cx="36" cy="36" r="36"/><linearGradient x1="-46.73%" y1="64.95%" x2="32.222%" y2="64.95%" id="f"><stop stop-color="#EEE" offset="0%"/><stop stop-color="#C7E5FF" stop-opacity="0" offset="100%"/></linearGradient><path d="M1 78L65.24 0l14.056 51.148C68.801 66.845 61.682 75.796 57.94 78c-5.614 3.307-28.415 13.266-33.415 10.633C21.192 86.878 13.35 83.333 1 78z" id="e"/><filter x="-33.2%" y="-24.7%" width="166.4%" height="158.4%" filterUnits="objectBoundingBox" id="d"><feOffset dy="4" in="SourceAlpha" result="shadowOffsetOuter1"/><feGaussianBlur stdDeviation="8" in="shadowOffsetOuter1" result="shadowBlurOuter1"/><feColorMatrix values="0 0 0 0 0.207843137 0 0 0 0 0.145098039 0 0 0 0 0.82745098 0 0 0 0.16 0" in="shadowBlurOuter1"/></filter><linearGradient x1="50%" y1="0%" x2="50%" y2="100%" id="g"><stop stop-color="#EEE" offset="0%"/><stop stop-color="#C7E5FF" offset="100%"/></linearGradient><linearGradient x1="50%" y1="0%" x2="18.063%" y2="67.579%" id="j"><stop stop-color="#EEE" offset="0%"/><stop stop-color="#C7E5FF" stop-opacity="0" offset="100%"/></linearGradient><path d="M19.006 47.006a24.978 24.978 0 0 1 29.007-24.673C44.832 11.83 34.672 5.037 23.75 6.111 12.827 7.186 4.186 15.827 3.11 26.75 2.037 37.672 8.83 47.832 19.333 51.013a25.1 25.1 0 0 1-.327-4.007z" id="i"/><filter x="-57.8%" y="-48.9%" width="215.5%" height="215.5%" filterUnits="objectBoundingBox" id="h"><feOffset dy="4" in="SourceAlpha" result="shadowOffsetOuter1"/><feGaussianBlur stdDeviation="8" in="shadowOffsetOuter1" result="shadowBlurOuter1"/><feComposite in="shadowBlurOuter1" in2="SourceAlpha" operator="out" result="shadowBlurOuter1"/><feColorMatrix values="0 0 0 0 0.207843137 0 0 0 0 0.145098039 0 0 0 0 0.82745098 0 0 0 0.16 0" in="shadowBlurOuter1"/></filter><path d="M35.575 44.234a26.635 26.635 0 0 1 30.932-26.31C63.114 6.723 52.28-.52 40.633.625 28.986 1.771 19.771 10.986 18.625 22.633c-1.145 11.647 6.098 22.48 17.299 25.874a26.765 26.765 0 0 1-.35-4.273z" id="l"/><filter x="-41.7%" y="-33.3%" width="183.3%" height="183.3%" filterUnits="objectBoundingBox" id="k"><feOffset dy="4" in="SourceAlpha" result="shadowOffsetOuter1"/><feGaussianBlur stdDeviation="6" in="shadowOffsetOuter1" result="shadowBlurOuter1"/><feColorMatrix values="0 0 0 0 0.207843137 0 0 0 0 0.145098039 0 0 0 0 0.82745098 0 0 0 0.16 0" in="shadowBlurOuter1"/></filter></defs><g fill="none" fill-rule="evenodd"><g transform="translate(28)"><mask id="c" fill="#fff"><use xlink:href="#a"/></mask><use fill="url(#b)" xlink:href="#a"/><g mask="url(#c)"><use fill="#000" filter="url(#d)" xlink:href="#e"/><use fill="url(#f)" xlink:href="#e"/></g></g><path d="M14.13 61h-2.26a.273.273 0 0 1-.193-.08l-1.597-1.597a.273.273 0 0 1-.08-.193v-2.26c0-.072.029-.142.08-.193l1.597-1.597a.273.273 0 0 1 .193-.08h2.26c.072 0 .142.029.193.08l1.597 1.597c.051.051.08.12.08.193v2.26a.273.273 0 0 1-.08.193l-1.597 1.597a.273.273 0 0 1-.193.08z" fill="url(#g)" opacity=".48" transform="rotate(-31 37.303 -22.632)"/><g transform="rotate(-97 48.449 9.1)"><use fill="#000" filter="url(#h)" xlink:href="#i"/><use fill-opacity=".72" fill="url(#j)" xlink:href="#i"/></g><g transform="translate(45 1)"><use fill="#000" filter="url(#k)" xlink:href="#l"/><use fill="url(#g)" xlink:href="#l"/></g></g></svg>