<svg width="128" height="72" xmlns="http://www.w3.org/2000/svg" xmlns:xlink="http://www.w3.org/1999/xlink"><defs><linearGradient x1="49.078%" y1="100%" x2="0%" y2="7.585%" id="b"><stop stop-color="#006DCC" offset="0%"/><stop stop-color="#338BF8" offset="39.97%"/><stop stop-color="#23FAD2" offset="100%"/></linearGradient><circle id="a" cx="36" cy="36" r="36"/><linearGradient x1="50%" y1="0%" x2="50%" y2="100%" id="c"><stop stop-color="#EEE" offset="0%"/><stop stop-color="#C7E5FF" offset="100%"/></linearGradient><linearGradient x1="-7.977%" y1="100%" x2="33.177%" y2="67.222%" id="g"><stop stop-color="#EEE" offset="0%"/><stop stop-color="#C7E5FF" stop-opacity="0" offset="100%"/></linearGradient><path d="M26 81L90.24 3l14.056 51.148C93.801 69.845 86.682 78.796 82.94 81c-5.614 3.307-28.415 13.266-33.415 10.633C46.192 89.878 38.35 86.333 26 81z" id="f"/><filter x="-33.2%" y="-24.7%" width="166.4%" height="158.4%" filterUnits="objectBoundingBox" id="e"><feOffset dy="4" in="SourceAlpha" result="shadowOffsetOuter1"/><feGaussianBlur stdDeviation="8" in="shadowOffsetOuter1" result="shadowBlurOuter1"/><feColorMatrix values="0 0 0 0 0.207843137 0 0 0 0 0.145098039 0 0 0 0 0.82745098 0 0 0 0.16 0" in="shadowBlurOuter1"/></filter><linearGradient x1="75%" y1="25%" x2="-25%" y2="75%" id="h"><stop stop-color="#EEE" stop-opacity=".32" offset="0%"/><stop stop-color="#C7E5FF" stop-opacity="0" offset="100%"/></linearGradient><path d="M68.489 10h38.548c.926 0 1.79.895 1.93 2l3.543 28c.14 1.105-.642 2-1.747 2h-46c-1.105 0-1.887-.895-1.747-2l3.544-28c.14-1.105 1.003-2 1.929-2z" id="j"/><filter x="-40.4%" y="-50%" width="180.8%" height="225%" filterUnits="objectBoundingBox" id="i"><feOffset dy="4" in="SourceAlpha" result="shadowOffsetOuter1"/><feGaussianBlur stdDeviation="6" in="shadowOffsetOuter1" result="shadowBlurOuter1"/><feColorMatrix values="0 0 0 0 0.207843137 0 0 0 0 0.145098039 0 0 0 0 0.82745098 0 0 0 0.16 0" in="shadowBlurOuter1"/></filter></defs><g fill="none" fill-rule="evenodd"><g transform="translate(28)"><mask id="d" fill="#fff"><use xlink:href="#a"/></mask><use fill="url(#b)" xlink:href="#a"/><rect fill="url(#c)" opacity=".48" mask="url(#d)" transform="rotate(42 23.664 14.659)" x="20.664" y="11.659" width="6" height="6" rx="3"/><g mask="url(#d)"><use fill="#000" filter="url(#e)" xlink:href="#f"/><use fill="url(#g)" xlink:href="#f"/></g></g><path d="M46.489 19h38.548c.926 0 1.79.895 1.93 2l3.543 28c.14 1.105-.642 2-1.747 2h-46c-1.105 0-1.887-.895-1.747-2l3.544-28c.14-1.105 1.003-2 1.929-2z" fill="url(#h)" transform="rotate(157 65.763 35)"/><g transform="rotate(11 87.763 26)"><use fill="#000" filter="url(#i)" xlink:href="#j"/><use fill="url(#c)" xlink:href="#j"/></g></g></svg>