<svg width="1056" height="792" xmlns="http://www.w3.org/2000/svg" xmlns:xlink="http://www.w3.org/1999/xlink"><defs><linearGradient x1="50%" y1="0%" x2="50%" y2="98.514%" id="b"><stop stop-color="#F3F5F8" offset="0%"/><stop stop-color="#F3F5F8" offset="100%"/></linearGradient><path d="M338.116 39.232c28.77 0 96.787 61.62 96.787 90.574s-23.323 52.426-52.092 52.426c-28.768 0-67.908-23.472-67.908-52.426 0-28.955 39.14-52.427 67.908-52.427m63.243 183.848c-17.012-98.385 141.862-118.114 66.572-155.149C437.336 69.043 440.428 25.067 383.01 25 325.568 25 279 71.875 279 129.698c0 57.82 184.067 229.913 167.054 131.529z" id="a"/><linearGradient x1="10.814%" y1="20.556%" x2="49.078%" y2="100%" id="c"><stop stop-color="#08F" offset="0%"/><stop stop-color="#3525D3" offset="100%"/></linearGradient></defs><g transform="translate(344.645 215.73)" fill="none" fill-rule="evenodd"><use fill="url(#b)" transform="rotate(-75 406 158)" xlink:href="#a"/><path d="M64.281 153.766c28.77 0 96.787 61.618 96.787 90.573 0 28.954-23.323 52.427-52.092 52.427-28.768 0-67.908-23.473-67.908-52.427 0-28.955 39.14-52.427 67.908-52.427m63.243 183.848c-17.012-98.384 141.862-118.114 66.572-155.149-75.29-37.035-72.198-81.011-129.616-81.078-57.442 0-104.01 46.875-104.01 104.698 0 57.82 184.067 229.913 167.054 131.529z" fill="url(#c)" opacity=".88" transform="rotate(178 132.165 272.533)"/></g></svg>