<svg width="1440" height="214" xmlns="http://www.w3.org/2000/svg"><defs><linearGradient x1="50%" y1="0%" x2="50%" y2="100%" id="a"><stop stop-color="#08F" offset="0%"/><stop stop-color="#00C7FA" offset="100%"/></linearGradient><linearGradient x1="50%" y1="96.08%" x2="50%" y2="0%" id="b"><stop stop-color="#55FBDC" stop-opacity=".32" offset="0%"/><stop stop-color="#55FBDC" offset="100%"/></linearGradient></defs><g fill="none" fill-rule="evenodd"><path d="M1267.501 173.967c-3.162-6.457-6.7-12.89-10.396-18.6-1.068-1.772-2.193-3.413-3.29-4.94 16.115 14.482 30.437 30.943 42.433 48.977 3.079 4.868 6.267 9.651 8.998 14.686l2.122 3.728 1.058 1.861.163.32c.419 1.421 1.046 3.601 1.919 6.368l.975 3.128c.346 1.112.739 2.278 1.051 3.552l2.203 8.245.605 2.248c.193.766.349 1.56.529 2.353l1.077 4.893 1.127 5.094.787 4.552c-11.185-32.343-28.81-61.682-51.361-86.465" fill="url(#a)" transform="rotate(-67 1286.338 205.43)"/><path d="M1259.121 177.781a264.38 264.38 0 0 0-13.233-52.019 264.084 264.084 0 0 0-23.555-48.218c-18.899-30.441-44-56.975-73.333-77.544" fill="url(#b)"/><path d="M1327.843 79.589c1.915 1.664 4.049 3.385 6.186 5.367 5.337 4.837 11.089 10.625 16.742 16.91C1324.499 80.098 1293.703 63.601 1260 54" fill="url(#a)"/></g></svg>