<svg width="540" height="540" xmlns="http://www.w3.org/2000/svg"><defs><linearGradient x1="50%" y1="0%" x2="50%" y2="99.011%" id="a"><stop stop-color="#00C7FA" offset="0%"/><stop stop-color="#00C7FA" stop-opacity=".24" offset="100%"/></linearGradient></defs><g fill="none" fill-rule="evenodd"><rect stroke="#C7E5FF" stroke-width="2" x="165" y="165" width="178" height="178" rx="89"/><path d="M392.127 276.078c-6.125-4.186-13.676-8.517-22.038-11.924a249.247 249.247 0 0 0-4.085-1.654c27.777 4.741 54.75 14.068 79.519 27.457.73.64 1.612 1.376 2.64 2.239.998.81 3.317 2.596 6.522 5.07l1.24.961 1.28 1.087 2.765 2.353c1.915 1.664 4.049 3.386 6.185 5.367 5.338 4.837 11.09 10.625 16.743 16.91-26.272-21.768-57.068-38.265-90.771-47.866" fill="url(#a)" transform="rotate(27 424.45 293.222)"/><path d="M502.645 244.343c2.49.484 5.199.907 8.04 1.555 7.04 1.52 14.916 3.657 22.954 6.274-33.636-5.716-68.555-4.605-102.543 3.932" fill="#55FBDC"/></g></svg>