<svg width="1440" height="469" xmlns="http://www.w3.org/2000/svg"><defs><linearGradient x1="50%" y1="0%" x2="50%" y2="98.514%" id="a"><stop stop-color="#F3F5F8" offset="0%"/><stop stop-color="#F3F5F8" stop-opacity="0" offset="100%"/></linearGradient><linearGradient x1="50%" y1="0%" x2="66.362%" y2="96.878%" id="b"><stop stop-color="#3525D3" offset="0%"/><stop stop-color="#08F" stop-opacity=".32" offset="100%"/></linearGradient><linearGradient x1="-.461%" y1="49.539%" x2="99.539%" y2="50.461%" id="c"><stop stop-color="#00C7FA" offset="0%"/><stop stop-color="#00C7FA" stop-opacity=".48" offset="100%"/></linearGradient></defs><g fill="none" fill-rule="evenodd"><path d="M204.5 427C139.055 427 86 374.067 86 308.77s109.359-12.436 122.39-71.632C221.422 177.942 323 243.473 323 308.77 266.097 357.395 269.916 426.928 204.5 427zm-.419 18C279.237 445 395 354.125 395 279.014 394.917 203.938 279.203 173.083 204.081 173 128.926 173 68 233.89 68 309s60.926 136 136.081 136z" fill="url(#a)" transform="rotate(-122 231.5 309)"/><path d="M222.241 55.875l-.332-4.555c-.15-1.511-.484-3.005-.735-4.502-.143-.747-.257-1.498-.431-2.236l-.616-2.195-.629-2.187-.318-1.09-.407-1.063-1.667-4.226c-1.338-2.711-2.614-5.457-4.296-7.97-3.2-5.12-6.811-10.063-11.273-14.261-.553-.526-1.062-1.107-1.66-1.584l-1.775-1.46c-1.198-.958-2.369-1.964-3.69-2.754-1.297-.824-2.586-1.672-3.934-2.41a98.186 98.186 0 0 0-4.19-1.934c-.736-.318-.662-.126.083.23 1.233.59 2.45 1.204 3.651 1.838 1.201.634 2.297 1.451 3.426 2.19l1.667 1.15c.556.378 1.048.849 1.57 1.271l3.05 2.623c.95.944 1.868 1.917 2.792 2.874.457.484.93.95 1.37 1.447l1.261 1.547c.826 1.04 1.705 2.03 2.494 3.093l2.307 3.241c2.932 4.348 5.541 8.98 7.281 13.971 1.02 2.443 1.584 5.031 2.264 7.58.304 1.283.45 2.597.667 3.897.197 1.302.423 2.602.44 3.92l.171 4.074c.017 1.356-.125 2.713-.194 4.066l-.138 2.031c-.036.677-.195 1.343-.289 2.014l-.682 4.012c-.314 1.319-.694 2.623-1.047 3.932l-.552 1.956-.718 1.9c-.496 1.262-.935 2.546-1.49 3.779l-1.796 3.64c-2.589 4.73-5.516 9.352-9.248 13.312-.454.505-.89 1.03-1.362 1.517l-1.48 1.403c-1.005.914-1.951 1.9-3.024 2.737l-3.248 2.473c-.535.425-1.108.79-1.694 1.137l-1.747 1.056c-2.285 1.484-4.832 2.49-7.29 3.627-1.277.458-2.567.886-3.852 1.316-.646.204-1.279.446-1.935.612l-1.98.457c-5.248 1.364-10.673 1.676-16.03 1.67l-4.023-.219-1.005-.057c-.334-.034-.666-.093-1-.14l-1.996-.298c-2.681-.304-5.279-1.041-7.892-1.704-1.302-.351-2.55-.873-3.825-1.31l-1.9-.695c-.626-.251-1.224-.563-1.837-.844-1.214-.584-2.44-1.15-3.635-1.77l-3.452-2.099c-4.476-2.968-8.715-6.367-12.233-10.448l-1.36-1.49-1.225-1.605c-.8-1.08-1.653-2.127-2.396-3.249-1.414-2.291-2.89-4.552-3.98-7.028-1.264-2.39-2.07-4.981-2.96-7.526-.386-1.292-.658-2.618-.98-3.925l-.454-1.968-.278-2c-.172-1.333-.364-2.665-.507-3.997l-.146-4.014c-.015-.668-.068-1.336-.049-2.003l.106-2.003c.083-1.332.111-2.67.236-3.998a64.688 64.688 0 0 1 4.274-17.242l1.844-4.077c.687-1.32 1.46-2.6 2.202-3.897.707-1.324 1.632-2.502 2.494-3.726l1.322-1.818c.446-.602.972-1.139 1.459-1.71.854-.959 1.707-1.928 2.593-2.867l2.86-2.629c.487-.426.944-.89 1.46-1.285l1.547-1.18c1.044-.769 2.044-1.603 3.123-2.316 2.197-1.371 4.317-2.863 6.62-4.007 1.14-.591 2.23-1.284 3.394-1.808 1.158-.545 2.311-1.085 3.459-1.624.79-.38.191-.662-.62-.291a127.36 127.36 0 0 1-3.416 1.502c-1.124.53-2.221 1.13-3.344 1.674-2.282 1.03-4.383 2.404-6.582 3.64-4.21 2.728-8.365 5.755-11.725 9.55-1.858 1.875-3.365 4.055-4.915 6.19-.763 1.074-1.376 2.253-2.056 3.382-.662 1.143-1.34 2.275-1.85 3.496l-1.628 3.605c-.492 1.22-.88 2.482-1.317 3.72l-.633 1.866c-.21.62-.329 1.27-.495 1.903l-.931 3.815c-.27 1.34-.436 2.697-.654 4.046l-.304 2.025c-.079.677-.094 1.358-.144 2.038L102 56.708c.012 1.361.083 2.724.13 4.087l.088 2.046c.063.679.172 1.355.258 2.034l.58 4.068.973 4c.175.664.319 1.338.527 1.992l.69 1.944c1.713 5.237 4.457 10.085 7.598 14.57l2.497 3.273c.88 1.052 1.837 2.038 2.759 3.052l1.402 1.5 1.52 1.384c1.025.907 2.007 1.866 3.077 2.718 2.19 1.652 4.34 3.363 6.735 4.72 2.292 1.52 4.81 2.64 7.277 3.85 1.257.55 2.563.995 3.846 1.487l1.938.715c.658.194 1.326.365 1.989.546 1.33.35 2.66.72 4 1.034l4.077.663c.682.095 1.36.24 2.044.289l2.057.135c1.371.075 2.743.2 4.115.216l4.124-.138c.686-.04 1.378-.022 2.06-.117l2.052-.268c5.5-.575 10.865-2.195 15.99-4.308l3.748-1.753c1.244-.598 2.398-1.36 3.6-2.043l1.78-1.06c.589-.364 1.13-.794 1.696-1.19 1.12-.812 2.243-1.62 3.345-2.455 2.059-1.842 4.237-3.579 6.058-5.676l1.414-1.525c.476-.505.943-1.018 1.351-1.58l2.528-3.31c.437-.54.794-1.137 1.16-1.728l1.088-1.78 1.07-1.792c.363-.593.621-1.243.933-1.865l1.753-3.788c.48-1.304.93-2.621 1.38-3.935.215-.66.461-1.31.645-1.979l.486-2.024c.304-1.353.666-2.692.897-4.054.347-2.742.848-5.463.853-8.216l.08-2.288.032-1.143c0-.38-.04-.76-.059-1.14" fill="url(#b)"/><path d="M1209.082 160.583c-5.632 1.364-11.616 2.453-17.195 5.143-5.397 2.791-11.202 5.564-15.952 9.996-4.638 4.534-7.914 10.361-10.843 16.164-3.045 6.372-4.287 13.425-5.21 20.373-.896 6.953-1.406 14.173-.048 21.28.41 1.751.778 3.518 1.134 5.296l1.522 5.222c.435 1.781 1.266 3.406 1.925 5.11l1.085 2.519 1.362 2.376c1.76 3.223 4.303 5.926 6.766 8.58l3.988 3.692c1.29 1.252 2.762 2.307 4.055 3.545 5.362 4.703 11.423 8.63 17.968 11.501 6.53 2.832 13.366 5.31 20.57 6.165 7.168.69 14.485.814 21.672-.582 7.149-1.458 14.12-3.952 20.52-7.544 6.47-3.595 11.62-9.009 16.58-14.276 4.945-5.29 9.783-11 12.91-17.757 3.16-6.682 5.726-13.802 6.702-21.268 88.662-18.095-.321-14.999-1.74-22.26-1.725-8.09 37.556-43.794 32.88-50.513-4.698-6.75-70.309-10.631-76.72-15.165-6.595-4.701-33.48-8.144-4.945 17.024 28.535 25.168-50.352-26.013-56.895-27.204-.272-.061 35.714 25.258 35.972 25.345 2.287.81 4.508 1.142 6.754 1.38 2.218.432 4.502.503 6.793.825 7.055.875 14.445 2.358 20.897 6.059 5.85 3.406 11.453 7.419 16.154 12.464 4.72 4.992 10.236-28.02 13.035-21.638 2.86 6.66 1.311 52.855 1.797 59.696.42 6.92-28.373-6.663-30.173 0-1.752 6.666 23.658 33.538 19.862 39.141-3.793 5.544-7.588 11.418-13.06 15.51-4.86 3.645-10.886 5.031-16.19 7.018l-1.976.827c-.667.254-1.364.435-2.041.66-1.364.417-2.71.883-4.073 1.278-2.799.548-37.772-46.62-40.613-46.474-5.551.722 20.907 49.734 15.222 48.887a76.237 76.237 0 0 1-4.16-.972c-1.368-.376-2.671-.995-3.99-1.486l-1.962-.77c-.646-.27-1.264-.626-1.898-.924-1.256-.623 22.471-44.313 21.199-44.863-4.976-2.457-20.072 19.956-24.312 16.354-4.126-3.742-22.57 1.597-25.109 5.196-.825-1.081-1.435-2.31-2.213-3.427-.76-1.134-1.539-2.26-2.14-3.487-.647-1.204-1.326-2.399-1.948-3.622a95.037 95.037 0 0 1-1.461-3.842c-1.622-5.2-3.248-10.544-3.352-16.099-.262-2.762.435-5.521.903-8.206.28-1.342.76-2.647 1.07-3.96.172-.656.328-1.314.464-1.97.153-.655.384-1.292.539-1.944.463-1.598.585-3.294 1.03-4.91.42-1.623.69-3.32 1.104-4.986l1.533-4.944a52.105 52.105 0 0 1 2.276-4.672c3.61-5.937 8.496-11.12 14.067-15.26 5.163-3.805 11.415-5.486 17.281-6.987 5.907-1.564 11.86-2.62 18.08-3.728.705-.157.638-2.034-.143-1.969-5.947.263-11.593 1.959-17.309 3.083z" fill="url(#c)" transform="rotate(127 1248.432 208.023)"/></g></svg>