<svg width="1920" height="572" xmlns="http://www.w3.org/2000/svg" xmlns:xlink="http://www.w3.org/1999/xlink"><defs><linearGradient x1="50%" y1="100%" x2="50%" y2=".126%" id="b"><stop stop-color="#55FBDC" offset="0%"/><stop stop-color="#00C7FA" stop-opacity=".8" offset="100%"/></linearGradient><path d="M508.274 448.991c-.208.326-.42.651-.64.97.217-.32.424-.648.64-.97zM76.64 317.516c-19.94 18.475 4.504 52.788 12.78 76.893.091.268.19.532.282.8.424 1.222.846 2.447 1.29 3.66a234.613 234.613 0 0 0 7.162 17.62c6.344 13.972 72.175-125.197 23.39 40.488s71.47-61.717 82.422-51.463c10.966 10.241-29.134 105.562-16.226 113.677 13.416 8.391 26.609 14.638 39.05 19.447 1.554.6 3.073 1.241 4.605 1.79l4.573 1.554c3.015 1.011 5.928 2.093 8.852 2.87l4.834 1.402c1.611.447 3.194.978 4.818 1.323l9.622 2.275c12.862 2.67 25.531 4.189 37.789 4.843 3.222.097 6.24.186 9.124.274 1.443.078 2.852-.015 4.236-.024 1.385-.026 2.744-.05 4.088-.077 5.38.02 10.48-.498 15.9-.804 1.336-.055 2.66-.258 3.992-.4 1.331-.152 2.664-.306 4-.46 2.67-.311 5.358-.57 8.017-1.07l8.024-1.34c2.672-.504 5.321-1.145 7.99-1.718l3.967-.878c1.323-.327 2.64-.716 3.97-1.075 2.652-.742 5.329-1.462 7.97-2.234l7.734-2.595c1.262-.443 2.533-.816 3.742-1.307l3.581-1.418c18.706-7.371 31.755-15.096 41.418-21.226l3.414-2.192c1.108-.703 2.181-1.385 3.175-2.116l5.668-3.996 2.557-1.804c.796-.617 1.564-1.21 2.304-1.782 1.48-1.144-128.994-79.362-127.732-80.336 10.274-8.127 152.312 59.707 161.903 48.939l3.569-4.081c.588-.693 1.216-1.355 1.774-2.078l1.698-2.15 3.013-3.82c.988-1.272 2.02-2.5 2.916-3.814l5.365-7.524c1.7-2.517 3.28-5.063 4.888-7.537 6.21-10.033 11.523-19.809 15.608-29.272l1.573-3.488c.543-1.142.942-2.33 1.413-3.475l2.653-6.773c.212-.553.442-1.097.633-1.652l.557-1.66 1.091-3.264c.71-2.154 1.434-4.247 2.08-6.308 1.142-4.162 2.297-8.089 3.244-11.826l2.368-10.593c1.13-6.657 2.19-12.329 2.6-17.01l.679-6.189c.166-1.792.196-3.316.263-4.545.107-2.462.118-3.766.029-3.827-.09-.063-.276 1.12-.55 3.45l-.487 4.346-.905 5.972-.528 3.58-.282 1.936c-.11.66-.255 1.33-.386 2.017-.535 2.75-1.117 5.749-1.748 8.987-.702 3.222-1.602 6.65-2.475 10.318-.405 1.842-.996 3.696-1.558 5.615l-1.745 5.916-.45 1.53-.525 1.527-1.083 3.107-2.245 6.437-2.675 6.606-1.38 3.407c-.455 1.152-1.028 2.267-1.545 3.419l-3.243 7.008c-1.15 2.355-2.435 4.699-3.678 7.113l-1.904 3.642-2.107 3.608-2.144 3.665c-.733 1.223-1.409 2.495-2.227 3.693l-1.87 2.876c23.157-36.555 36.576-79.92 36.576-126.429 0-130.427-289.265-410.031-235.568-236.16 53.698 173.872-127.923 136.428-235.567 236.16z" id="a"/><linearGradient x1="50%" y1="0%" x2="50%" y2="99.011%" id="c"><stop stop-color="#00C7FA" offset="0%"/><stop stop-color="#00C7FA" stop-opacity=".24" offset="100%"/></linearGradient><linearGradient x1="50%" y1="0%" x2="50%" y2="100%" id="d"><stop stop-color="#08F" offset="0%"/><stop stop-color="#00C7FA" offset="100%"/></linearGradient><linearGradient x1="50%" y1="0%" x2="50%" y2="98.514%" id="e"><stop stop-color="#F5F6F7" offset="0%"/><stop stop-color="#F5F6F7" stop-opacity="0" offset="100%"/></linearGradient></defs><g fill="none" fill-rule="evenodd"><use fill="url(#b)" transform="scale(-1 1) rotate(78 -655.943 -912.468)" xlink:href="#a"/><path d="M1635.175 40.21c.145.81.228 1.636.224 2.486-.026.846-.163 1.709-.464 2.52-.037.106-.376-.034-.348-.136.25-.79.455-1.588.545-2.405.067-.815.036-1.643-.2-2.412-.37-1.2-1.167-2.116-1.983-2.878 1.42 2.067 1.781 4.84.702 7.38-1.652 3.892-6.036 5.754-9.794 4.16-3.757-1.596-5.464-6.043-3.812-9.935a7.839 7.839 0 0 1 2.248-3.01 4.833 4.833 0 0 0-1.464 1.065c-1.037 1.133-1.758 2.576-2.143 4.163-.365 1.62-.067 3.29.414 4.92.252.825.73 1.56 1.294 2.209.581.637 1.248 1.18 1.938 1.718.08.062-.062.324-.152.265-.745-.494-1.5-.969-2.204-1.56-.684-.601-1.317-1.307-1.723-2.15-.794-1.665-1.386-3.563-1.104-5.498.3-1.91 1.131-3.687 2.352-5.098a10.002 10.002 0 0 1 4.48-2.993c1.663-.57 3.493-.72 5.18-.262 1.703.437 3.083 1.586 4.208 2.827 1.155 1.288 1.525 3.038 1.806 4.623zm-10.86 11.495c.688.075 1.322.42 2.05.73.716.295 1.53.53 2.297.342.644-.158 1.243-.631 1.788-1.07.553-.445 1.053-.845 1.735-.936.22-.037.833 1.295.603 1.392-1.498.597-2.93.906-4.39 1.05-1.53.142-2.907-.448-4.256-.717-.03-.006.147-.793.173-.79zm.477 7.173c-3.45-.436-6.509-2.174-8.906-4.555-2.4-2.344-4.344-5.336-4.895-8.759-.56-3.42.34-6.93 1.75-9.857.718-1.47 1.62-2.854 2.71-4.066a16.068 16.068 0 0 1 3.72-3.026c2.741-1.573 5.846-1.977 8.759-1.814 1.472.06 2.913.445 4.229 1.008 1.324.548 2.537 1.31 3.674 2.175 1.157.868 2.295 1.808 3.277 2.942.98 1.125 1.83 2.441 2.258 3.929.89 2.964.746 6.21-.102 9.214-.026.084-.485-.053-.46-.132.637-2.154 1.425-4.555.947-6.883-.475-2.315-1.855-4.198-3.198-5.864-1.38-1.718-3.442-2.575-5.228-3.399-2.39-1.137-5.143-1.622-7.797-1.199-1.322.201-2.677.365-4.04.774-1.353.4-2.726 1.025-3.839 2.026-1.106 1.003-2.02 2.224-2.749 3.535-.712 1.318-1.239 2.718-1.654 4.185-.404 1.471-.433 3.034-.254 4.535.173 1.512.588 2.955 1.057 4.388.467 1.422 1.031 2.868 1.88 4.194.839 1.32 1.933 2.555 3.302 3.377 2.702 1.667 5.997 2.292 9.211 2.023 2.965-.258 5.841-1.433 8.216-3.349 1.016-.829 1.787-2.011 2.42-3.182.665-1.166 1.187-2.309 2.06-3.282.283-.318 1.161.318.898.69-.984 1.422-1.975 2.82-3.081 4.145-1.101 1.325-2.37 2.548-3.812 3.46-1.522.97-3.155 1.779-4.909 2.291-1.748.502-3.615.704-5.444.476z" fill="#55FBDC"/><path d="M22.666 35.165c-4.611-3.134-10.296-6.376-16.59-8.927C5.053 25.815 4.025 25.404 3 25a195.983 195.983 0 0 1 59.863 20.556c.55.479 1.214 1.03 1.988 1.676.751.606 2.497 1.943 4.91 3.796l.934.719.963.814 2.081 1.761c1.442 1.246 3.049 2.535 4.657 4.018C82.414 61.962 86.744 66.295 91 71 71.222 54.703 48.038 42.353 22.666 35.165" fill="url(#c)" transform="rotate(47 808.043 1797.405)"/><path d="M78.396 185.867c1.915 1.664 4.049 3.385 6.186 5.367 5.337 4.837 11.089 10.625 16.742 16.91-26.272-21.768-57.068-38.265-90.771-47.866" fill="url(#d)" transform="translate(1521.447 -.278)"/><g transform="translate(95 79)" fill="url(#e)"><path d="M91.76 235.395c-38.25-42.48-35.09-107.679 7.056-145.628 42.146-37.948 71.94 63.755 117.764 37.81 45.824-25.944 62.892 78.073 20.746 116.021-64.641-8.675-107.29 34.214-145.567-8.203zm-11.941 10.804c43.83 48.677 169.936 70.898 218.366 27.29 48.36-43.64.773-136.501-42.984-185.205-43.83-48.678-118.622-52.79-167.052-9.182-48.43 43.607-52.16 118.418-8.33 167.097z"/></g></g></svg>