<svg width="1056" height="792" xmlns="http://www.w3.org/2000/svg" xmlns:xlink="http://www.w3.org/1999/xlink"><defs><linearGradient x1="50%" y1="0%" x2="50%" y2="98.514%" id="b"><stop stop-color="#F3F5F8" offset="0%"/><stop stop-color="#F3F5F8" offset="100%"/></linearGradient><path d="M704.116 261.232c28.77 0 96.787 61.62 96.787 90.574s-23.323 52.426-52.092 52.426c-28.768 0-67.908-23.472-67.908-52.426 0-28.955 39.14-52.427 67.908-52.427m63.243 183.848c-17.012-98.385 141.862-118.114 66.572-155.149-75.29-37.035-72.198-81.011-129.616-81.078C691.568 247 645 293.875 645 351.698c0 57.82 184.067 229.913 167.054 131.529z" id="a"/><linearGradient x1="49.078%" y1="100%" x2="10.814%" y2="20.556%" id="d"><stop stop-color="#08F" offset="0%"/><stop stop-color="#3525D3" offset="100%"/></linearGradient><path d="M448.66 633.635c-27.36-8.89-73.008-88.511-64.06-116.049 8.947-27.537 38.381-42.654 65.743-33.763 27.36 8.89 57.33 43.308 48.383 70.845-8.947 27.538-53.425 37.766-80.785 28.876m-3.335-194.392c-14.223 98.826-156.834 115.73-84.015 149.233 21.666 9.968 31.89 20.83 37 31.641 12.067 25.525-4.37 50.764 33.975 63.272 54.63 17.75 113.405-12.44 131.273-67.433 17.867-54.99-104.01-275.54-118.233-176.713z" id="c"/></defs><g fill="none" fill-rule="evenodd"><use fill="url(#b)" transform="rotate(17 772 380)" xlink:href="#a"/><use fill="url(#d)" opacity=".88" transform="rotate(140 422.312 501.193)" xlink:href="#c"/><path d="M542.802 604.535c.63-.426 1.296-.805 2.013-1.116.722-.29 1.497-.49 2.287-.528.103-.007.106.34.01.354-.754.075-1.499.19-2.219.415-.71.243-1.396.576-1.959 1.066-.878.767-1.364 1.8-1.714 2.795a6.988 6.988 0 0 1 5.962-3.344 7 7 0 1 1-3.338 13.154c.412.372.889.688 1.42.882 1.325.485 2.797.58 4.27.328 1.494-.281 2.793-1.16 3.994-2.182.604-.525 1.052-1.214 1.397-1.945.329-.743.547-1.525.754-2.326.023-.093.295-.066.277.035-.149.832-.279 1.666-.525 2.498-.262.819-.63 1.632-1.195 2.299-1.117 1.308-2.504 2.526-4.233 2.996a9.058 9.058 0 0 1-5.132-.163c-1.63-.527-3.051-1.536-4.12-2.798-1.074-1.24-1.854-2.78-2.072-4.42-.24-1.646.234-3.275.876-4.715.672-1.483 2.013-2.454 3.247-3.285zm13.097 5.157c-.18-.625-.117-1.302-.115-2.048-.008-.731-.1-1.524-.521-2.12-.355-.501-.954-.847-1.505-1.158-.56-.316-1.063-.603-1.376-1.162-.108-.177.774-1.2.934-1.036 1.015 1.08 1.769 2.21 2.397 3.424.652 1.276.647 2.689.897 3.959.005.028-.704.165-.711.141zm6.323-2.702c.85 3.11.486 6.356-.639 9.27-1.094 2.904-2.882 5.653-5.514 7.367-2.626 1.72-5.838 2.226-8.748 2.082a15.305 15.305 0 0 1-4.305-.842 14.243 14.243 0 0 1-3.8-2.082c-2.259-1.774-3.68-4.283-4.566-6.833-.467-1.281-.653-2.653-.65-3.983-.01-1.332.193-2.646.508-3.932.311-1.305.69-2.62 1.28-3.871.585-1.247 1.374-2.451 2.452-3.357 2.134-1.838 4.864-2.893 7.64-3.258.078-.008.126.434.052.44-2 .238-4.258.436-6.012 1.69-1.744 1.247-2.815 3.11-3.719 4.864-.935 1.804-.92 3.879-.974 5.705-.1 2.457.463 4.988 1.742 7.104.63 1.058 1.24 2.157 2.054 3.174.804 1.012 1.801 1.96 3.017 2.548 1.215.582 2.543.92 3.88 1.068 1.337.13 2.677.073 4.033-.105 1.356-.188 2.656-.731 3.832-1.43 1.187-.696 2.233-1.575 3.251-2.496 1.01-.915 2.006-1.923 2.803-3.131.795-1.196 1.431-2.58 1.63-4.05.43-2.915-.209-5.961-1.557-8.612a13.938 13.938 0 0 0-5.642-5.811c-1.04-.568-2.286-.798-3.474-.915-1.195-.145-2.32-.176-3.43-.57-.362-.126-.145-1.108.255-1.018 1.518.325 3.02.665 4.5 1.13 1.48.46 2.933 1.102 4.191 2.004 1.334.95 2.573 2.053 3.61 3.367 1.027 1.313 1.847 2.836 2.3 4.483z" fill-opacity=".48" fill="#00C7FA"/></g></svg>