<svg width="32" height="32" xmlns="http://www.w3.org/2000/svg"><defs><linearGradient x1="95.059%" y1="50%" x2="5.575%" y2="50%" id="a"><stop stop-color="#55FBDC" offset="0%"/><stop stop-color="#08F" offset="100%"/></linearGradient><linearGradient x1="95.059%" y1="50%" x2="5.575%" y2="50%" id="b"><stop stop-color="#2ED4FF" offset="0%"/><stop stop-color="#08F" offset="98.277%"/></linearGradient><linearGradient x1="48.165%" y1="66.639%" x2="0%" y2="0%" id="c"><stop stop-color="#4F40DC" stop-opacity=".24" offset="0%"/><stop stop-color="#3525D3" offset="100%"/></linearGradient></defs><g fill="none" fill-rule="evenodd"><path d="M6 2h17a7 7 0 0 1 0 14H2V6a4 4 0 0 1 4-4z" fill="url(#a)"/><path d="M2 16h21a7 7 0 0 1 0 14H6a4 4 0 0 1-4-4V16z" fill="url(#b)"/><path d="M6 2h12v28H6a4 4 0 0 1-4-4V6a4 4 0 0 1 4-4z" fill="url(#c)" opacity=".64"/></g></svg>