<svg width="64" height="64" xmlns="http://www.w3.org/2000/svg"><defs><linearGradient x1="0%" y1="7.585%" y2="100%" id="a"><stop stop-color="#C3FFF4" offset="0%"/><stop stop-color="#C7E5FF" offset="100%"/></linearGradient><linearGradient x1="100%" y1="100%" x2="0%" y2="7.585%" id="b"><stop stop-color="#006DCC" offset="0%"/><stop stop-color="#33A0FF" offset="100%"/></linearGradient></defs><g fill="none" fill-rule="evenodd"><path fill="url(#a)" d="M0 0h64v64H0z"/><path d="M.397 9.797l2.577 1.952 9-4-6.977 5.499v6.749a1 1 0 0 0 1.765.643l3.13-3.72 6.505 4.877a1 1 0 0 0 1.58-.6l4-20A1 1 0 0 0 20.627.072l-20 8a1 1 0 0 0-.23 1.725z" transform="translate(21 21)" fill="url(#b)"/></g></svg>