<svg width="712" height="400" xmlns="http://www.w3.org/2000/svg" xmlns:xlink="http://www.w3.org/1999/xlink"><defs><rect id="a" width="712" height="400" rx="2"/><linearGradient x1="24.434%" y1="90.469%" x2="78.169%" y2="9.507%" id="d"><stop stop-color="#202932" offset="0%"/><stop stop-color="#202932" stop-opacity=".88" offset="97.408%"/></linearGradient><circle id="c" cx="40" cy="40" r="40"/><filter x="-70%" y="-50%" width="240%" height="240%" filterUnits="objectBoundingBox" id="b"><feOffset dy="16" in="SourceAlpha" result="shadowOffsetOuter1"/><feGaussianBlur stdDeviation="16" in="shadowOffsetOuter1" result="shadowBlurOuter1"/><feComposite in="shadowBlurOuter1" in2="SourceAlpha" operator="out" result="shadowBlurOuter1"/><feColorMatrix values="0 0 0 0 0.125490196 0 0 0 0 0.160784314 0 0 0 0 0.196078431 0 0 0 0.24 0" in="shadowBlurOuter1"/></filter><path d="M48 40a.999.999 0 0 0-.427-.82l-10-7A1 1 0 0 0 36 33V47a.999.999 0 0 0 1.573.82l10-7A.995.995 0 0 0 48 40V40c0 .001 0 .001 0 0z" id="f"/><filter x="-466.7%" y="-250%" width="1033.3%" height="800%" filterUnits="objectBoundingBox" id="e"><feOffset dy="16" in="SourceAlpha" result="shadowOffsetOuter1"/><feGaussianBlur stdDeviation="16" in="shadowOffsetOuter1" result="shadowBlurOuter1"/><feComposite in="shadowBlurOuter1" in2="SourceAlpha" operator="out" result="shadowBlurOuter1"/><feColorMatrix values="0 0 0 0 0.062745098 0 0 0 0 0.0862745098 0 0 0 0 0.254901961 0 0 0 0.24 0" in="shadowBlurOuter1"/></filter></defs><g fill="none" fill-rule="evenodd"><use fill="#FFF" xlink:href="#a"/><g transform="translate(316 160)"><use fill="#000" filter="url(#b)" xlink:href="#c"/><use fill="url(#d)" xlink:href="#c"/></g><g transform="translate(316 160)"><use fill="#000" filter="url(#e)" xlink:href="#f"/><use fill-opacity=".99" fill="#FFF" xlink:href="#f"/></g></g></svg>